<?xml version="1.0" standalone="no"?><svg xmlns="http://www.w3.org/2000/svg" viewBox="0 0 1440 320"><path fill="#4d2b63" fill-opacity="1" d="M0,32L30,64C60,96,120,160,180,176C240,192,300,160,360,144C420,128,480,128,540,128C600,128,660,128,720,112C780,96,840,64,900,69.3C960,75,1020,117,1080,122.7C1140,128,1200,96,1260,90.7C1320,85,1380,107,1410,117.3L1440,128L1440,320L1410,320C1380,320,1320,320,1260,320C1200,320,1140,320,1080,320C1020,320,960,320,900,320C840,320,780,320,720,320C660,320,600,320,540,320C480,320,420,320,360,320C300,320,240,320,180,320C120,320,60,320,30,320L0,320Z"></path></svg>