<?xml version="1.0" standalone="no"?><svg xmlns="http://www.w3.org/2000/svg" viewBox="0 0 1440 320"><path fill="#6c3c8d" fill-opacity="1" d="M0,160L30,170.7C60,181,120,203,180,197.3C240,192,300,160,360,149.3C420,139,480,149,540,160C600,171,660,181,720,192C780,203,840,213,900,213.3C960,213,1020,203,1080,186.7C1140,171,1200,149,1260,138.7C1320,128,1380,128,1410,128L1440,128L1440,0L1410,0C1380,0,1320,0,1260,0C1200,0,1140,0,1080,0C1020,0,960,0,900,0C840,0,780,0,720,0C660,0,600,0,540,0C480,0,420,0,360,0C300,0,240,0,180,0C120,0,60,0,30,0L0,0Z"></path></svg>